<svg xmlns="http://www.w3.org/2000/svg" viewBox="0 0 32 32" fill="none">
  <rect width="32" height="32" rx="4" fill="#E87D0D"/>
  <rect x="6" y="6" width="20" height="20" rx="2" fill="#2D2D2D"/>
  <!-- Top-left finder -->
  <rect x="8" y="8" width="6" height="6" rx="0.5" fill="#E87D0D"/>
  <rect x="9" y="9" width="4" height="4" rx="0.3" fill="#2D2D2D"/>
  <rect x="10" y="10" width="2" height="2" rx="0.2" fill="#E87D0D"/>
  <!-- Top-right finder -->
  <rect x="18" y="8" width="6" height="6" rx="0.5" fill="#E87D0D"/>
  <rect x="19" y="9" width="4" height="4" rx="0.3" fill="#2D2D2D"/>
  <rect x="20" y="10" width="2" height="2" rx="0.2" fill="#E87D0D"/>
  <!-- Bottom-left finder -->
  <rect x="8" y="18" width="6" height="6" rx="0.5" fill="#E87D0D"/>
  <rect x="9" y="19" width="4" height="4" rx="0.3" fill="#2D2D2D"/>
  <rect x="10" y="20" width="2" height="2" rx="0.2" fill="#E87D0D"/>
  <!-- Data modules -->
  <rect x="16" y="16" width="2" height="2" fill="#E87D0D" opacity="0.9"/>
  <rect x="20" y="16" width="2" height="2" fill="#E87D0D" opacity="0.9"/>
  <rect x="18" y="18" width="2" height="2" fill="#E87D0D" opacity="0.9"/>
  <rect x="22" y="20" width="2" height="2" fill="#E87D0D" opacity="0.7"/>
  <rect x="16" y="20" width="2" height="2" fill="#E87D0D" opacity="0.7"/>
  <rect x="16" y="8" width="2" height="2" fill="#E87D0D" opacity="0.6"/>
  <rect x="8" y="16" width="2" height="2" fill="#E87D0D" opacity="0.6"/>
</svg>
